<svg xmlns="http://www.w3.org/2000/svg" viewBox="0 0 492 492"><defs><style>.cls-1{fill:none;}</style></defs><title>Asset 4</title><g id="Layer_2" data-name="Layer 2"><g id="Layer_2-2" data-name="Layer 2"><path d="M248.53,411c-45.35,0-87.59-16-119-45-32-29.63-49.63-70.34-49.63-114.62,0-25.1,5.39-50.68,15.17-72,9.61-21,25.41-51,51.5-69.76C170,92.81,202.06,85,247.64,85,263.1,85,279,90.78,293,95.88c3.45,1.26,6.71,2.45,9.94,3.55,59.07,20.13,99,55.92,112.32,100.75,2.9,9.72,1.94,21.36,1,32.61-.45,5.45-.91,11.09-.91,16.33v.37c0,30.42,0,54.45-13.29,76.79s-40.08,42.19-60.2,54.86C311.72,400.12,277.71,411,248.53,411ZM243.39,87.46c-44.59,0-71.62,9.55-94.17,25.74-25.23,18.11-44,49.44-53.4,70-9.52,20.77-11.4,43.72-11.4,68.19,0,87,72.31,157.19,164.34,157.19,28.35,0,61.27-12.64,90.7-31.18,19.71-12.42,41.79-33.07,54.63-54.68,12.66-21.29,16.77-43.46,16.77-73.19v-.37c0-5.42.48-11.15.93-16.7.9-10.84,1.82-22-.83-31-17.45-58.57-66.2-84.28-99.6-95.67-3.26-1.11-16.44-4.44-19.91-5.7C277.12,94.87,258.06,87.46,243.39,87.46Z"/><path d="M168.15,124.43l-18.33,16.24,12.08-15.2c6.34-4,15.06-11.31,22.36-13,19.92-4.51,53.26-12.26,59.65-12.13s27.74,5.77,35.15,11.68l-13.86-4c-8.95-2.68-15.39-4.41-21.35-4.53-7.75-.16-15.55,1.4-23.1,2.91l-40.3,11.3A31.27,31.27,0,0,0,168.15,124.43Z"/><path d="M142.89,234.36c-3,6.94-13,34.72-19.62,38.34L120,254.06c-.35-2-.69-4.13.14-6,1.44-3.18,5.45-4,8.75-5.11,5-1.72,10.16-5.11,13.14-9.5,2.68-1.35-.45,1.79,1.34,0"/><path d="M169.05,216.25a66.69,66.69,0,0,0-10.21,5.18c-2.74,1.48-16.5,13.54-18.41,16.28l.45-2.68c2.16-3.11,13.34-14.66,16.47-16.36a115.47,115.47,0,0,1,11.65-5c10.2-3.73,8.1-1.49,17.05-3.27l-10.29,3.13"/><path d="M239,352.71,235.24,350c3.3-.81,9-3.87,9.75-7.18.08-.38.15-.78.22-1.21a12.13,12.13,0,0,1,.67-2.77,11.82,11.82,0,0,1,3-4c3.64-3.51,6.82-4.28,11-6.48a11.4,11.4,0,0,1,3.06-1.09l4.52-.9a7.4,7.4,0,0,1,.93-.12l8-1.31-11.13,3.78a7.37,7.37,0,0,0-1.8.72c-4.55,2.46-8.59,4-12.4,7.65a9.25,9.25,0,0,0-2.27,2.9,10.14,10.14,0,0,0-.48,2.1c-.08.45-.15.92-.26,1.39A12.52,12.52,0,0,1,239,352.71Z"/><path d="M241.72,354.21c-2.81-2.81-8.32-8.76-25.49-12.08-2.23-.43-17.7-2.12-19.95-2.38-3.17-.37-6.08-1.89-9.18-2.62-8.16-1.92-18.06,3.56-18.59,11.92-.37,5.93,3.65,11.14,7.44,15.72,2,2.39,4.09,4.87,7,6.08a19.49,19.49,0,0,0,6.54,1.11l9.72.53a17.83,17.83,0,0,1,6.7,1.23c3.54,1.66,5.55,5.34,8,8.37s6.46,5.7,10.06,4.2l-6.83-12.12a3.63,3.63,0,0,1-.69-2.57,3.69,3.69,0,0,1,1.83-2l11.05-7a2.58,2.58,0,0,1,1.31-.52,2.53,2.53,0,0,1,1.27.47q10.65,6.26,21.25,12.6c-1.94-4.42-5.6-13.36-11.41-21"/><path d="M297.1,303.55c3,.65,6,1.73,9,1.71,6.8,0,12.36-5.25,16.84-10.37s9.16-10.8,15.78-12.36A96.22,96.22,0,0,1,315,273.24a22.25,22.25,0,0,1-6.14-4.51c-5.17-5.88-3.84-14.83-2.21-22.49-5-2.81-11.29-2.26-16.51.06s-9.56,6.2-13.78,10.05c-7.58,6.91-15.58,14.92-16.32,25.14a7.83,7.83,0,0,0,.46,3.73,10.36,10.36,0,0,0,1.75,2.47c6.68,7.86,8.42,16.49,12.29,25.46C280.5,305.55,286.55,301.27,297.1,303.55Z"/><path d="M208.15,256.9c-3.16-.41-6.3-1-9.44-1.5L181,252.31c.68,4.46.66,9.66,2,14,1.47,4.78,1.81,4.6,5.88,2.88,3.25-1.38,6.63-4.5,9.8-6.29C200.25,261.94,206.68,256.71,208.15,256.9Z"/><path d="M290.3,152.71l11.29-4.88A15,15,0,0,1,300,153a5.13,5.13,0,0,1-4.38,2.72c-2.72-.12-5-3.09-7.63-2.39"/><path d="M352.17,192.29c1.17-1.9,2.67-4.18,4.91-4.07a5.9,5.9,0,0,1,3.35,1.78c2.27,1.94,4.66,4.05,5.49,6.91a15.28,15.28,0,0,1,.39,4.58l-.13,9.51c0,1.6,0,3.38,1.09,4.57,1.4,1.55,3.84,1.38,5.91,1.09-.83.12-3,5.43-4.55,6.21-2.95,1.53-4.79.55-7.31-1.2-4.87-3.38-7.61-6.52-13.36-8.71C333.74,207.56,346.94,200.78,352.17,192.29Z"/><path d="M369.2,308.37H369c.08,0,4-3.58,9.21-13.36,3.19-6,7.29-11,7.93-12.48l7.12-16.25a6.78,6.78,0,0,0,.84-3.13c-.14-1.34-1.34-2.49-2.61-3.72l-.38-.37A33.8,33.8,0,0,1,381,236.66l0-.29c.36,7.6,6.78,15.14,12.22,20.45l.38.36c1.54,1.49,3.29,3.17,3.55,5.64a9.31,9.31,0,0,1-1.09,4.72L389,283.79a111.69,111.69,0,0,1-8.5,13.37C372.46,308.31,370.17,308.35,369.2,308.37Z"/><path d="M279,204.91a3.79,3.79,0,0,1-1.09-.16l-5.09.32c.66.2,7.57-4.15,7.89-5.14a13.94,13.94,0,0,0,.42-1.77,11.06,11.06,0,0,1,1.16-3.62,11.67,11.67,0,0,1,4.37-3.74c2.24-1.36,3.6-2.3,3.72-3.89.26-3.4-7.27-8.22-9.51-10.46l-8.05-6.71c3.34,1.37,21.13,11.49,20.69,17.41-.26,3.3-3,5-5.22,6.32a9.48,9.48,0,0,0-3.3,2.66,8.41,8.41,0,0,0-.79,2.62,16.27,16.27,0,0,1-.51,2.15C283,203,281.12,204.91,279,204.91Z"/><path d="M239.93,225.86c9.39-.44,9.69.37,7.56,5.45-.21.49.14,1.09.47,1.51a4.24,4.24,0,0,0,1.82,1c1.84.78,3.16,2.72,5.15,3s4-1.76,4.23-3.88a7.86,7.86,0,0,0-2.26-5.79c-2.66-3-12.94-3-17-1.23"/><path d="M339.61,364.32l.27-.05L336,360.69a16.43,16.43,0,0,1-3.75-5.22l-3.06-6.77A27.68,27.68,0,0,1,326,333.45a42.49,42.49,0,0,0-.16-5.45c-.37-3.14-1.45-5.49-3.06-6.62a4.84,4.84,0,0,0-4.06-.58c-1.44.34-2.67.72-3.87,1.09-3.74,1.16-7,2.17-12.71.29-.91-.3-1.84-.62-2.74-.94-3.8-1.34-7.4-2.6-11.07-2.31a7.75,7.75,0,0,0-3.38,1l-4.1,1.89c1.3-.79,4.47-5.82,10.73-5.82,4.36,0,4.92.93,8.86,2.32.88.31,1.79.63,2.68.92,4.78,1.56,7.18.82,10.81-.31,1.18-.37,2.52-.78,4.07-1.15a8,8,0,0,1,6.58,1.07c2.34,1.64,3.9,4.77,4.37,8.81a46.29,46.29,0,0,1,.18,5.86,24.62,24.62,0,0,0,2.94,13.93Z"/><path d="M161.34,366.93a23.35,23.35,0,0,1-12.57-9.61,45.85,45.85,0,0,1-2.82-5.48c-.4-.89-.83-1.82-1.27-2.7-4.06-8.1-10.48-14.38-17.27-21a154.93,154.93,0,0,1-10.91-11.4,77.71,77.71,0,0,1-18-48.38c0-2.63,0-5.28.14-7.85a105.24,105.24,0,0,0,0-11c-.24-3.4-.83-6.86-1.4-10.21-.5-2.91-1-5.92-1.3-8.94-1-10.59,6.11-20.95,13-31,4.6-6.67,6.39-12.23,11.76-19.38l14.31-20.57c-4.92,7.6-19,35.16-23.49,41.73-6.59,9.56-13.41,19.44-12.49,28.89.28,2.9.79,5.86,1.28,8.72.58,3.42,1.18,6.95,1.43,10.51a106.1,106.1,0,0,1,0,11.28c-.09,2.53-.18,5.14-.14,7.69a74.55,74.55,0,0,0,17.25,46.42,154.5,154.5,0,0,0,10.69,11.18c6.68,6.53,13.59,13.29,17.88,21.86.47.93.9,1.88,1.32,2.8a42.75,42.75,0,0,0,2.61,5.1c2.49,3.9,15,12.17,19.43,13.55Z"/><path d="M390.76,204.61a10.12,10.12,0,0,1-4.7-1.16l.33-.17c1.15.61,3.2-.89,4.49-.91-.07-1.65-1.1-3.26-2.17-4.94a19,19,0,0,1-2.24-4.23,17.48,17.48,0,0,1-.56-6c0-.6,0-1.23,0-1.82,0-2.9-.76-4.9-2.15-6a9.08,9.08,0,0,0-1.75-1,14.6,14.6,0,0,1-1.53-.77,15.28,15.28,0,0,1-3.47-3.17c-.3-.34-.59-.67-.9-1-5.48-5.83-13.68-8.23-20.92-10.34l.31-.12c7.14,2.09,16.35,2.66,22.24,8.93.32.34.63.68.94,1a13.45,13.45,0,0,0,2.94,2.74,12.48,12.48,0,0,0,1.32.65,11.5,11.5,0,0,1,2.18,1.21c2,1.51,3,4.11,3,7.72,0,.64,0,1.28,0,1.91a15.47,15.47,0,0,0,.44,5.28,17.66,17.66,0,0,0,2,3.73c1.43,2.24,2.92,4.55,2.44,7.37l-.14.81-.81.11A9.76,9.76,0,0,1,390.76,204.61Z"/><path d="M229.88,147c-9.18,3.67-19.89,4.71-27,11.55-4.05,3.9-6.43,9.26-10.37,13.27a5.36,5.36,0,0,1-2.14,1.49,7.38,7.38,0,0,1-3.79-.35c-9-2.11-17.89,3.46-25.49,8.76a39.32,39.32,0,0,1,5.33-21.58c1.59-2.72,3.53-5.29,4.39-8.31s.3-6.75-2.3-8.52c-1.18-.82-2.81-1.28-3.3-2.63s.63-3,1.8-4c9.45-8.39,23.17-9.36,35.79-9.9,8-.34,16.26-.65,23.8,2,6.63,2.38,12.78,7.07,19.81,6.72,1.3-.07-1.09,3.15-3.33,4.05C237.41,144.18,237.51,144,229.88,147Z"/><path class="cls-1" d="M101.1,359.09C90,345,60.21,306.07,59,248c-1.29-61.7,30.57-103.85,39.33-115.09"/><path class="cls-1" d="M399,358c-6.23,8.52-59.91,79.37-152,78-86.29-1.28-136.46-64.93-145.9-76.91"/><path d="M246,492A246,246,0,0,1,72.05,72.05,246,246,0,0,1,420,420,244.4,244.4,0,0,1,246,492ZM246,1C110.91,1,1,110.91,1,246S110.91,491,246,491,491,381.09,491,246,381.09,1,246,1Zm0,422.5C147,423.5,66.5,343,66.5,244S147,64.5,246,64.5,425.5,145,425.5,244,345,423.5,246,423.5Zm0-358C147.58,65.5,67.5,145.57,67.5,244S147.58,422.5,246,422.5,424.5,342.42,424.5,244,344.42,65.5,246,65.5Z"/><path d="M56.63,214.79l-.19,0a45.26,45.26,0,0,0-7.64,0q-4.26.33-10.36,1.29c-3,.48-5.78.87-8.2,1.15L55.18,221a2.54,2.54,0,0,1,1.43.57,1.63,1.63,0,0,1,.27,1.43,1.55,1.55,0,0,1-.66,1.13,1.72,1.72,0,0,1-1.3.26l-.5-.08-18.59-2.93q-8.2-1.37-18.52-2.93l-7.78-1.17a1.41,1.41,0,0,1-1-.48,2.12,2.12,0,0,1-.09-1.37,7.05,7.05,0,0,1,1.05-2.82,6.6,6.6,0,0,1,2-2,10.77,10.77,0,0,1,5.69-1.73,15.62,15.62,0,0,1,2.95.18,16.33,16.33,0,0,1,2.07.48c.74.22,1.22.36,1.42.44a16.45,16.45,0,0,1,1.81.85l1.56.82,1.66,1,1.55.88a34.36,34.36,0,0,0,5.88.08q3.59-.21,6.69-.64,2.19-.32,7.31-1.23l5.85-1,.12,0a7.55,7.55,0,0,1,1.81.46,1.19,1.19,0,0,1,.81,1.48C58.57,213.51,57.88,214.2,56.63,214.79Zm-31.4-.4-5.3-1.78a5.38,5.38,0,0,0-.87-.19,15.56,15.56,0,0,0-4.35.05,6.88,6.88,0,0,0-2.08.69,2,2,0,0,0-1,1.11l6.31,1.08c2.81.55,5,1,6.56,1.18s2.45.35,2.92.38A30.22,30.22,0,0,0,25.23,214.39Z"/><path d="M59.64,205.6a1.62,1.62,0,0,1-2,.63L21.52,197.4a21.4,21.4,0,0,0-3.26-.4,15.35,15.35,0,0,1-3.28-.34l-.19,0a13.88,13.88,0,0,1-1.85-2.1,15,15,0,0,0,.31-2.36,13.29,13.29,0,0,1,.31-2.36A3.69,3.69,0,0,1,14.63,188a1.7,1.7,0,0,1,1.62-.59c1.25.3,1.63,1.41,1.17,3.31l-.21.87a4.83,4.83,0,0,0-.28.86,2.19,2.19,0,0,0-.1.7q2.12.51,5.15,1l1.78.3,3.45.71c.78.19,2,.55,3.56,1.07l3.45,1,0-.92a8,8,0,0,1,.13-2.14A1.82,1.82,0,0,1,35.2,193a1.68,1.68,0,0,1,1.35-.27,2.22,2.22,0,0,1,1.23.8,1.44,1.44,0,0,1,.3,1.29l-.24.73-.2.81a1.7,1.7,0,0,0,.12,1.41L57,202.51l.66-3.53q.87-3.54,2.49-3.15l.25.06a2.88,2.88,0,0,1,.87,1.67,6.73,6.73,0,0,1,.12,2.07l-.44,2.06-.47,1.93A6.21,6.21,0,0,1,59.64,205.6Z"/><path d="M63.54,189.75a2.65,2.65,0,0,1-1.56-.09l-10.13-3.6q-7.32-2.72-11.38-4.09-14.12-4.83-22.16-5.81a2.84,2.84,0,0,1-.61-2.78,8.92,8.92,0,0,1,2.4-3.75,9.52,9.52,0,0,1,3.74-2.14,14.64,14.64,0,0,1,8.68.33A17.84,17.84,0,0,1,40,172.53a14.42,14.42,0,0,1,3.65,7.54l6.16,2L53,183c.7.2,1.69.51,3,1q4.11,1.22,6.66,2.08a3.18,3.18,0,0,1,1.65,1.1,1.87,1.87,0,0,1,.15,1.74A1.28,1.28,0,0,1,63.54,189.75ZM37.17,174.11a13.83,13.83,0,0,0-5.16-3l-.06,0a26.77,26.77,0,0,0-3.62-.9,4.72,4.72,0,0,0-1.68.17c-.6.16-.94.24-1,.25A11.28,11.28,0,0,0,23,172.2l-1.69,1.18q3.09,1.06,9.7,2.91l9.69,2.91A16.42,16.42,0,0,0,37.17,174.11Z"/><path d="M69.17,169.2a22.35,22.35,0,0,1-9.32-.48,73.68,73.68,0,0,1-11.17-3.61q-5.24-2.1-11.2-4.9L32.67,158q-2-1-4.26-2.07a1.71,1.71,0,0,1-1.38-.08,1.91,1.91,0,0,1-1-1.1,1.72,1.72,0,0,1,0-1.42q1-2.08,5.09-.16,2.67,1.26,10.22,4.44T51.55,162a16.65,16.65,0,0,1,3.27.87,36.69,36.69,0,0,1,3.83,1.47A17.16,17.16,0,0,0,62,165.42a27.33,27.33,0,0,0,4.34.62,11,11,0,0,0,4.26-.41,3.9,3.9,0,0,0,2.5-1.94,2.11,2.11,0,0,0,.11-1.61,2.9,2.9,0,0,0-1.16-1.43,17.15,17.15,0,0,0-3-1.84l-11.3-5.29a50.79,50.79,0,0,0-5.64-2.15q-3.81-1.37-5.67-2.23L46,149c-.62-.29-1.19-.54-1.71-.73l-1.71-.73q-1.62-.77-5-2.14c-2.05-.77-3.74-1.47-5.1-2.1a1.47,1.47,0,0,1-.78-1.18,2.76,2.76,0,0,1,.22-1.7l2-.82,1,.46a8.55,8.55,0,0,1,1.57,1c1,.66,1.59,1,1.75,1.1q5.27,2.48,14.82,6.24,10,4,15.37,6.56a22.39,22.39,0,0,1,4.82,3,6.79,6.79,0,0,1,1.7,2,5.71,5.71,0,0,1,.62,2.31A5.51,5.51,0,0,1,75,165,7.17,7.17,0,0,1,69.17,169.2Z"/><path d="M79.11,152.11l-6.64-4.23-6.63-4.24q-3.66-2.23-11.17-6.64T43.5,130.36l-.33-.2a13.35,13.35,0,0,1-2.44-1.89,1.93,1.93,0,0,1-.4-2.64,9.13,9.13,0,0,1,6.17-4.55,10.86,10.86,0,0,1,7.86,1.76,13.5,13.5,0,0,1,4.32,4.46,12.22,12.22,0,0,1,2.07,5.55,15.15,15.15,0,0,1,8.35-1.29,21,21,0,0,1,8.31,3.05,13.9,13.9,0,0,1,3.93,4.22,11.94,11.94,0,0,1,2.21,7.29,9.25,9.25,0,0,1-1.4,4.1l-.13.22Q80.47,152.95,79.11,152.11ZM57.39,131.24a26.67,26.67,0,0,0-2.77-3.81A17.49,17.49,0,0,1,53.43,126l-1.91-1.18a5.91,5.91,0,0,0-3.9-.74,4,4,0,0,0-3.2,1.78c-.31.51.09,1.11,1.22,1.81q3.6,2.2,6.5,3.84l6.12,3.62A4.54,4.54,0,0,0,57.39,131.24Zm22.42,10.93a9.35,9.35,0,0,0-4-4.63A28.88,28.88,0,0,0,71,135.12a11.86,11.86,0,0,0-3.85-.9,14.65,14.65,0,0,0-2.48.12,4.52,4.52,0,0,0-1.56.47l-.43.34-1.21,2q6.44,3.58,18.21,10.83A7.33,7.33,0,0,0,79.81,142.17Z"/><path d="M91.28,135.58a1.89,1.89,0,0,1-1.56-.32,5.07,5.07,0,0,1-1-1,7,7,0,0,0-1-1q-4.58-3.41-17.93-12.58Q58.4,112.92,52,108.13a1.13,1.13,0,0,1-.47-.91,1.69,1.69,0,0,1,.37-1.09,1.88,1.88,0,0,1,1.24-.75,1.72,1.72,0,0,1,1.39.33Q57.6,108,64,112.29q7,4.83,9.43,6.63l.65.41.61.46.36.27.26.19q4.58,3.18,13.45,9.8l1.33,1,3-4a2.56,2.56,0,0,1,2.34.07,1.83,1.83,0,0,1,.72,1.13,1.43,1.43,0,0,1-.24,1.22,3.23,3.23,0,0,1-.52.49l-.21.17a7.05,7.05,0,0,1-.67,1l-.65.87a9.52,9.52,0,0,0-.67.78,2.19,2.19,0,0,1-.45,1.9A2.23,2.23,0,0,1,91.28,135.58Z"/><path d="M97.12,124.53c-.77-.68-.73-1.49.12-2.45l.51-.58a2.53,2.53,0,0,0,.43-.39.85.85,0,0,0,.24-.76,2.07,2.07,0,0,0-.71-.93q-4.08-3.6-11.57-9.34-7.73-6-11.47-9.34c-.9-.79-1.7-1.52-2.41-2.21l-2.4-2.2a26.45,26.45,0,0,0-2.77-2.18,4.62,4.62,0,0,1-.78,1.27,1.33,1.33,0,0,1-2.13.09,1.64,1.64,0,0,1-.39-1.59,6.78,6.78,0,0,1,1-2.35,28.3,28.3,0,0,1,2.67-3.7,1.81,1.81,0,0,1,1.25-.65,1.64,1.64,0,0,1,1.27.4,1.92,1.92,0,0,1,.64,1.11,1.31,1.31,0,0,1-.32,1.13,2.32,2.32,0,0,1-.47.44l-.34.39a1.24,1.24,0,0,0-.39.88,1.44,1.44,0,0,0,.6.92Q74.75,97,84.23,104.22,94.1,111.89,98.81,116l1.82,1.6a10.7,10.7,0,0,1,.8-1q1.78-2,3.46-.53l.29.25-.24,1.92a2.58,2.58,0,0,0-.23.31c-.13.17-.4.5-.83,1q-1.34,1.73-1.68,2.1C99.78,124.42,98.08,125.38,97.12,124.53Z"/><path d="M114.06,109.68a8.36,8.36,0,0,1-3.42.14,14.4,14.4,0,0,1-3.6-1.32,24,24,0,0,1-3.8-2.36,64.62,64.62,0,0,1-7.53-6.53c-.7-.69-1.87-1.9-3.51-3.65L89.44,93c-.75-.87-1.56-1.75-2.4-2.65a31.88,31.88,0,0,1-3.75-4.65,10.28,10.28,0,0,1-1.5-1.32,7.64,7.64,0,0,1-2.14-6.5,11.07,11.07,0,0,1,3.7-6.71,5.56,5.56,0,0,1,2.85-1.45,2.59,2.59,0,0,1,2.56.67,1.22,1.22,0,0,1,.33,1.09,2.11,2.11,0,0,1-.67,1.16,5.34,5.34,0,0,1-1.14.8,1.32,1.32,0,0,1-1.07.22l-.6.57-.09-.1a7.17,7.17,0,0,0-2.19,3.46,5.34,5.34,0,0,0,.57,3.24,8.08,8.08,0,0,0,.95,1.57A16.36,16.36,0,0,0,86.11,84a19.82,19.82,0,0,0,1.35,1.54L89.09,87l1.54,1.55A11.81,11.81,0,0,1,92,90.39a14.31,14.31,0,0,0,1.3,1.85l1,1.12q1.71,1.81,4.83,4.86a37.69,37.69,0,0,0,5.6,4.75,14.57,14.57,0,0,0,5.52,2.72,4.71,4.71,0,0,0,4.7-1.08,4.93,4.93,0,0,0,1.17-2.68,5.78,5.78,0,0,1,1-2.5,2.72,2.72,0,0,1,2-.57,4.21,4.21,0,0,1,1.19,3.89,9,9,0,0,1-1.89,3.79c-.56.64-1,1.14-1.4,1.49A6.68,6.68,0,0,1,114.06,109.68Z"/><path d="M138.48,90.56a9.8,9.8,0,0,1-3.76-1.27,29.43,29.43,0,0,1-7.52-6.39q-2.83-3.11-6.1-7.48l-1.92-2.79-1.91-2.88c-.64-.9-1.4-2-2.27-3.33a60.87,60.87,0,0,1-3.48-5.84,25.26,25.26,0,0,1-2.29-5.77,7,7,0,0,1,.41-4.72,5.68,5.68,0,0,1,1.64-1.7,6.32,6.32,0,0,1,6-.72,16.62,16.62,0,0,1,6.11,4,45.7,45.7,0,0,1,5.69,6.52q2.72,3.64,4.94,7l2,3.05c.4.6,1.07,1.8,2,3.59a34.28,34.28,0,0,0,2,3.5l.14.22a19.56,19.56,0,0,0,2,3.73,9.81,9.81,0,0,1,1.4,3.52,9.13,9.13,0,0,1,0,3.93,4.27,4.27,0,0,1-1.82,3A4.83,4.83,0,0,1,138.48,90.56Zm1.92-7a22.57,22.57,0,0,0-1.91-4.92c-.92-1.81-2-3.84-3.28-6.07-.54-1-1.3-2.19-2.26-3.65l-3.3-4.87q-2-2.82-5.41-6.79a29.36,29.36,0,0,0-5.91-5.45,6.6,6.6,0,0,0-2.71-1.2,3,3,0,0,0-2.2.38q-1.33.89-.6,3.39a23.93,23.93,0,0,0,2.11,5.51c1,2,2.1,3.91,3.19,5.64l1.11,1.8c.3.52.73,1.2,1.29,2.06l.14.21A77.37,77.37,0,0,0,127.23,78q5.55,6.54,9.18,8.43c1.54.77,2.7.9,3.48.38S140.77,85.26,140.4,83.61Z"/><path d="M151.51,77.11Q148,70.54,139.82,56.43t-9.14-14.64a3.13,3.13,0,0,1,0-3.09,4.82,4.82,0,0,1,1-1.16,7.2,7.2,0,0,1,1.39-1,14.53,14.53,0,0,1,1.39-.8,3.5,3.5,0,0,1,2.09-.56,2,2,0,0,1,1.36,1.2,1.19,1.19,0,0,1,0,1.17,2.26,2.26,0,0,1-1,.91l-.6.24-.79.42c-1.06.56-1.47,1-1.25,1.46q1.55,2.94,4.46,7.49c1.62,2.52,3.09,5,4.43,7.28.22-.21.65-.6,1.3-1.16A10.19,10.19,0,0,1,146,53.07a1.54,1.54,0,0,1,1.36,0,2.06,2.06,0,0,1,1.1,1,1.31,1.31,0,0,1-.14,1.52c-.05.08-.19.26-.4.54a3.62,3.62,0,0,1-1,.84L145.38,58l-.62.33q1.8,3.39,5.44,8.92,3.74,5.85,5.38,9l.06.25v.15a4.19,4.19,0,0,1,.44.7,1.62,1.62,0,0,1,.1,1.43,2.31,2.31,0,0,1-1.13,1.14Q153.41,80.73,151.51,77.11Z"/><path d="M181.67,68.21a8.41,8.41,0,0,1-3.18-1.27,13.89,13.89,0,0,1-2.75-2.67,23.81,23.81,0,0,1-2.51-3.7,65.94,65.94,0,0,1-4.22-9c-.36-.92-.93-2.5-1.72-4.76L166,43c-.34-1.1-.71-2.24-1.11-3.41a30.18,30.18,0,0,1-1.53-5.77A9.64,9.64,0,0,1,162.5,32a7.67,7.67,0,0,1,.68-6.81,11.16,11.16,0,0,1,6.12-4.63,5.71,5.71,0,0,1,3.2-.16A2.61,2.61,0,0,1,174.56,22a1.2,1.2,0,0,1-.15,1.13,2.07,2.07,0,0,1-1.08.79,5.46,5.46,0,0,1-1.36.27A1.36,1.36,0,0,1,170.9,24l-.79.27,0-.12a7.18,7.18,0,0,0-3.41,2.27,5.32,5.32,0,0,0-.79,3.18,8.34,8.34,0,0,0,.22,1.82,19.17,19.17,0,0,0,.53,1.92c.07.34.28,1,.61,2l.86,2.08.77,2a11.81,11.81,0,0,1,.5,2.2,12.56,12.56,0,0,0,.43,2.22l.5,1.46q.83,2.35,2.43,6.4a38,38,0,0,0,3.18,6.62A14.37,14.37,0,0,0,179.84,63a4.69,4.69,0,0,0,4.73.93,5,5,0,0,0,2.16-2,5.69,5.69,0,0,1,1.92-1.88,2.69,2.69,0,0,1,2.07.3,4.23,4.23,0,0,1-.5,4A9,9,0,0,1,187,67.12c-.78.36-1.41.63-1.89.8A6.78,6.78,0,0,1,181.67,68.21Z"/><path d="M201,62.94a9.7,9.7,0,0,1-3.07-2.52,29.45,29.45,0,0,1-4.78-8.63q-1.55-3.91-3.07-9.14l-.81-3.3L188.47,36c-.29-1.07-.61-2.38-1-3.91a66.58,66.58,0,0,1-1.19-6.69,25.26,25.26,0,0,1-.1-6.21,7,7,0,0,1,2.05-4.28,5.63,5.63,0,0,1,2.13-1,6.36,6.36,0,0,1,5.84,1.43,16.7,16.7,0,0,1,4.3,5.92,45.49,45.49,0,0,1,3,8.1q1.26,4.38,2.15,8.31l.81,3.56c.16.7.36,2.06.6,4.06a36.18,36.18,0,0,0,.65,4l0,.25a21.35,21.35,0,0,0,.56,4.2,10,10,0,0,1,.08,3.79,9.18,9.18,0,0,1-1.4,3.67,4.28,4.28,0,0,1-2.78,2.21A4.86,4.86,0,0,1,201,62.94Zm4.25-5.83a22.81,22.81,0,0,0-.05-5.27q-.33-3-.93-6.84c-.16-1.1-.44-2.51-.83-4.21L202,35.06q-.89-3.35-2.66-8.25a29.1,29.1,0,0,0-3.61-7.19,6.69,6.69,0,0,0-2.11-2.08,3,3,0,0,0-2.2-.42c-1,.24-1.62,1.22-1.75,3a23.34,23.34,0,0,0,0,5.9c.25,2.26.58,4.4,1,6.4l.4,2.08c.09.59.25,1.38.48,2.38l0,.25a77.48,77.48,0,0,0,3.22,10.1q2.9,8.07,5.62,11.13c1.16,1.26,2.2,1.79,3.12,1.58S205,58.79,205.22,57.11Z"/><path d="M222,59.14a9.67,9.67,0,0,1-2.76-2.85,29.66,29.66,0,0,1-3.78-9.12q-1.09-4.06-2-9.43L213,34.37l-.38-3.43c-.17-1.1-.33-2.43-.51-4a62.91,62.91,0,0,1-.42-6.78,25.05,25.05,0,0,1,.6-6.19,7,7,0,0,1,2.52-4,5.64,5.64,0,0,1,2.23-.76,6.34,6.34,0,0,1,5.64,2.08,16.74,16.74,0,0,1,3.6,6.36,45.2,45.2,0,0,1,2.09,8.4q.75,4.5,1.19,8.5l.4,3.63c.08.72.13,2.08.14,4.1a38.32,38.32,0,0,0,.18,4l0,.25a21.16,21.16,0,0,0,.08,4.24,9.79,9.79,0,0,1-.35,3.78,9.19,9.19,0,0,1-1.81,3.48,4.24,4.24,0,0,1-3,1.88A4.86,4.86,0,0,1,222,59.14Zm4.89-5.31a23.13,23.13,0,0,0,.54-5.24q0-3.06-.15-6.91c0-1.11-.15-2.53-.34-4.27l-.71-5.85q-.51-3.42-1.71-8.5a29.31,29.31,0,0,0-2.77-7.55,6.84,6.84,0,0,0-1.86-2.31,3,3,0,0,0-2.14-.66c-1.06.11-1.75,1-2.08,2.74a24.26,24.26,0,0,0-.64,5.86q0,3.42.27,6.48l.17,2.1c0,.6.09,1.41.2,2.43l0,.25a75.18,75.18,0,0,0,2.05,10.4q1.95,8.36,4.32,11.69c1,1.39,2,2,2.91,1.93S226.46,55.47,226.88,53.83Z"/><path d="M252.33,58.48a3.92,3.92,0,0,0-.71-.06q-1.69-9.81-3.39-16.4a78.84,78.84,0,0,0-4.31-12.44l-1.35,2.5a5.08,5.08,0,0,0-.65,1.91c-.13,1.28-.2,2.22-.2,2.82q0,1.92.17,5.89c.12,2.6.17,4.59.17,5.95l0,5.25c0,2.26-.74,3.39-2.19,3.38-1.24,0-1.85-1.2-1.84-3.59q0-2.82.41-8.64.48-5.37.48-8.57L239,31l0-6.65a63,63,0,0,0-.42-7.36,59.09,59.09,0,0,1-.42-6,2,2,0,0,1,.52-1.41A1.65,1.65,0,0,1,240,9q2.37,0,2.35,5.2L242,27.27l1.23-3.13q2.13-5.37,4.39-10.6A41.06,41.06,0,0,1,250,9c.73-1.15,1.31-1.72,1.74-1.72a1.81,1.81,0,0,1,1.24.48A1.53,1.53,0,0,1,253.47,9q0,.65-3.48,7.92a62.78,62.78,0,0,0-4,9.27v1.15q.95,2.43,5.06,15.6t4.11,13.94a1.64,1.64,0,0,1-.61,1.28,2.19,2.19,0,0,1-1.45.5A2.25,2.25,0,0,1,252.33,58.48Z"/><path d="M258.45,55.52c.11-1,.8-1.47,2.07-1.34l.76.08a2.39,2.39,0,0,0,.57.12.83.83,0,0,0,.77-.24A2.17,2.17,0,0,0,263,53q.54-5.42.86-14.84.42-9.8.93-14.77.18-1.77.39-3.24l.39-3.24a26,26,0,0,0,.17-3.52,4.38,4.38,0,0,1-1.49.11,1.33,1.33,0,0,1-1.31-1.68A1.6,1.6,0,0,1,264,10.6a6.69,6.69,0,0,1,2.47-.59A28.49,28.49,0,0,1,271,10a1.82,1.82,0,0,1,1.25.64,1.58,1.58,0,0,1,.42,1.26,1.88,1.88,0,0,1-.54,1.17,1.29,1.29,0,0,1-1.1.4,2.39,2.39,0,0,1-.63-.13l-.51,0a1.28,1.28,0,0,0-.95.19,1.57,1.57,0,0,0-.4,1q-.68,6.75-1.06,18.67Q267,45.71,266.34,52l-.24,2.42a9.21,9.21,0,0,1,1.28.06c1.78.18,2.6,1,2.45,2.5l0,.38-1.71.92h-.38c-.22,0-.64,0-1.28-.1-1.45-.06-2.34-.11-2.68-.14C260.08,57.61,258.33,56.79,258.45,55.52Z"/><path d="M276.62,59.82a1.62,1.62,0,0,1-.74-2l6.89-36.54A20.13,20.13,0,0,0,283,18a15.09,15.09,0,0,1,.17-3.29l0-.19a14.58,14.58,0,0,1,2-2,15.31,15.31,0,0,0,2.38.19A13.62,13.62,0,0,1,290,13a3.71,3.71,0,0,1,1.84,1,1.71,1.71,0,0,1,.67,1.59c-.23,1.26-1.32,1.71-3.24,1.34l-.89-.16a5,5,0,0,0-.86-.23,2.52,2.52,0,0,0-.71-.07c-.27,1.43-.51,3.16-.72,5.2l-.21,1.79-.52,3.48c-.15.8-.44,2-.88,3.61l-.79,3.5.92,0a7.89,7.89,0,0,1,2.14,0,1.85,1.85,0,0,1,1.16.78,1.69,1.69,0,0,1,.34,1.33,2.2,2.2,0,0,1-.73,1.26,1.46,1.46,0,0,1-1.28.38l-.74-.2-.82-.16a1.71,1.71,0,0,0-1.4.19L279.56,57l3.56.48q3.58.67,3.27,2.31l0,.25a2.85,2.85,0,0,1-1.62,1,6.86,6.86,0,0,1-2.06.23l-2.09-.33-1.95-.37A6.33,6.33,0,0,1,276.62,59.82Z"/><path d="M291.06,63.3a1.64,1.64,0,0,1-.62-1.58,1.92,1.92,0,0,1,.72-1.09,1.28,1.28,0,0,1,1.17-.16,5.44,5.44,0,0,1,1.65,1,7,7,0,0,0,1.46,1,3,3,0,0,0,2.41-.4,7.45,7.45,0,0,0,2.27-2.25,17.17,17.17,0,0,0,2.7-5.22,21.2,21.2,0,0,0,.76-5.8,32.5,32.5,0,0,0-.61-6.34l-.42-2.25q-.66-3.51-1-5.54a29.17,29.17,0,0,1-.33-4.29,20,20,0,0,1,.71-6,12.06,12.06,0,0,1,2-4,8.9,8.9,0,0,1,3.26-2.66,5.49,5.49,0,0,1,4.24-.38,4.22,4.22,0,0,1,2,1.26,3.82,3.82,0,0,1,1,2l-1.42,1a4,4,0,0,1-2.22-1.31,3.11,3.11,0,0,0-2.25.52,6.85,6.85,0,0,0-1.89,1.83,8.21,8.21,0,0,0-1,2.23,19.85,19.85,0,0,0-.72,4.95,27.14,27.14,0,0,0,.38,5.07l1.84,9.85a24.78,24.78,0,0,1,.23,5.46,26.43,26.43,0,0,1-1,5.71A16.19,16.19,0,0,1,302.19,63a8.56,8.56,0,0,1-3.55,2.14,6.9,6.9,0,0,1-4,0A8.72,8.72,0,0,1,291.06,63.3Z"/><path d="M371.25,104.22l.13-.15a45.1,45.1,0,0,0,4-6.49q2-3.8,4.37-9.48c1.2-2.85,2.31-5.37,3.35-7.57L366.76,99.72a2.54,2.54,0,0,1-1.24.91,1.59,1.59,0,0,1-1.36-.52,1.55,1.55,0,0,1-.61-1.16,1.75,1.75,0,0,1,.46-1.24l.34-.39,12.3-14.23q5.49-6.25,12.26-14.19l5.11-6a1.39,1.39,0,0,1,.93-.6,2.16,2.16,0,0,1,1.21.65A7.18,7.18,0,0,1,398,65.34a6.79,6.79,0,0,1,.66,2.78,11,11,0,0,1-1.54,5.76,15.35,15.35,0,0,1-1.72,2.4,15,15,0,0,1-1.49,1.51c-.58.51-1,.84-1.12,1a17.83,17.83,0,0,1-1.69,1.09l-1.52.89-1.74.87-1.57.85a33.9,33.9,0,0,0-3.17,5q-1.73,3.15-3,6-.89,2-2.82,6.86l-2.24,5.49-.08.09a7.57,7.57,0,0,1-1.35,1.29,1.19,1.19,0,0,1-1.69-.09A3.14,3.14,0,0,1,371.25,104.22Zm16.92-26.45,4.3-3.57a5.48,5.48,0,0,0,.63-.64,15.55,15.55,0,0,0,2.24-3.72,6.34,6.34,0,0,0,.51-2.13,1.88,1.88,0,0,0-.39-1.47L391.22,71c-2,2.09-3.44,3.74-4.47,4.94s-1.59,1.9-1.86,2.28A31.65,31.65,0,0,0,388.17,77.77Z"/><path d="M377.47,111.63a1.61,1.61,0,0,1,.51-2l26.57-26A20,20,0,0,0,406.61,81a15.23,15.23,0,0,1,2-2.6l.14-.14a14.66,14.66,0,0,1,2.76-.47,15,15,0,0,0,1.84,1.52,12.19,12.19,0,0,1,1.84,1.51,3.63,3.63,0,0,1,1,1.84,1.7,1.7,0,0,1-.36,1.69c-.91.9-2.06.64-3.43-.76l-.63-.64a5.42,5.42,0,0,0-.58-.68,2.07,2.07,0,0,0-.54-.46c-1,1-2.22,2.3-3.57,3.86L405.87,87l-2.42,2.55c-.58.57-1.51,1.39-2.79,2.47L398,94.46l.76.51a7.65,7.65,0,0,1,1.76,1.24,1.81,1.81,0,0,1,.5,1.29,1.67,1.67,0,0,1-.49,1.29,2.15,2.15,0,0,1-1.31.62A1.5,1.5,0,0,1,398,99l-.49-.6-.58-.59a1.72,1.72,0,0,0-1.26-.65L381.5,111l2.65,2.43q2.55,2.6,1.36,3.77l-.18.18a2.84,2.84,0,0,1-1.88-.14,6.58,6.58,0,0,1-1.82-1l-1.53-1.46-1.38-1.42A6.21,6.21,0,0,1,377.47,111.63Z"/><path d="M388.87,123.31a2.65,2.65,0,0,1,.9-1.28l8.4-6.7q6.16-4.8,9.49-7.51,11.54-9.45,16.63-15.76A2.82,2.82,0,0,1,427,93a8.94,8.94,0,0,1,1.92,4,9.46,9.46,0,0,1-.16,4.3,14.51,14.51,0,0,1-4.86,7.2,17.7,17.7,0,0,1-7.94,3.85,14.46,14.46,0,0,1-8.32-.88l-4.92,4.19-2.55,2.24c-.53.5-1.33,1.17-2.39,2q-3.19,2.86-5.28,4.56a3.12,3.12,0,0,1-1.81.82,1.84,1.84,0,0,1-1.55-.79A1.28,1.28,0,0,1,388.87,123.31Zm27.2-14.15a13.91,13.91,0,0,0,5.29-2.79l.05,0a28.16,28.16,0,0,0,2.67-2.6,5,5,0,0,0,.74-1.52c.18-.58.29-.92.33-1a11.33,11.33,0,0,0,0-3.09l-.12-2.06q-2.52,2.07-7.58,6.7l-7.59,6.7A16.2,16.2,0,0,0,416.07,109.16Z"/><path d="M403.35,138.93a22.39,22.39,0,0,1,5.32-7.66,73.88,73.88,0,0,1,9-7.58q4.55-3.34,10.07-6.93l4.46-2.9q1.9-1.17,4-2.52a1.75,1.75,0,0,1,.79-1.13,2,2,0,0,1,1.47-.27,1.75,1.75,0,0,1,1.21.74q1.26,1.93-2.56,4.41-2.46,1.6-9.16,6.34t-9.16,6.34a16.68,16.68,0,0,1-2.46,2.32,37.31,37.31,0,0,1-3.27,2.48,16.69,16.69,0,0,0-2.68,2.27,27.52,27.52,0,0,0-2.82,3.36,11,11,0,0,0-1.9,3.83,3.85,3.85,0,0,0,.33,3.15,2.08,2.08,0,0,0,1.3.94,2.9,2.9,0,0,0,1.83-.23,16.72,16.72,0,0,0,3.16-1.6l10.46-6.8a49,49,0,0,0,4.8-3.66q3.18-2.52,4.89-3.63l.38-.25c.57-.37,1.08-.72,1.52-1.06l1.52-1.07q1.5-1,4.46-3.12,2.6-2,4.47-3.22a1.47,1.47,0,0,1,1.42,0,2.74,2.74,0,0,1,1.32,1.08l-.36,2.15-.91.59a8.24,8.24,0,0,1-1.7.8q-1.63.76-1.86.9-4.87,3.18-13.11,9.29-8.7,6.34-13.69,9.59a22.48,22.48,0,0,1-5.08,2.54,6.74,6.74,0,0,1-2.56.4,5.73,5.73,0,0,1-2.28-.69,5.61,5.61,0,0,1-2.07-2A7.18,7.18,0,0,1,403.35,138.93Z"/><path d="M412.62,156.41l7.1-3.4,7.1-3.4q3.84-1.92,11.54-6t11.54-6l.34-.18a14.28,14.28,0,0,1,2.89-1.08,1.92,1.92,0,0,1,2.46,1.06,9.1,9.1,0,0,1,.6,7.64,10.83,10.83,0,0,1-5.64,5.75,13.68,13.68,0,0,1-6.07,1.32,12.45,12.45,0,0,1-5.81-1.18,15,15,0,0,1-3.31,7.77,21.16,21.16,0,0,1-7,5.45,14.14,14.14,0,0,1-5.67,1.11,12,12,0,0,1-7.35-2,9.26,9.26,0,0,1-2.75-3.35l-.11-.23C411.63,158,411.67,156.89,412.62,156.41Zm8.07,5.85a9.27,9.27,0,0,0,6-.95,27.91,27.91,0,0,0,4.63-2.84,12.11,12.11,0,0,0,2.79-2.79,15.21,15.21,0,0,0,1.2-2.17,4.31,4.31,0,0,0,.43-1.58l-.06-.54-1-2.06q-6.45,3.57-18.82,9.75A7.42,7.42,0,0,0,420.69,162.26ZM441.82,149a27.54,27.54,0,0,0,4.7-.35,15.55,15.55,0,0,1,1.88-.22l2-1a6,6,0,0,0,2.69-2.92,4,4,0,0,0,.17-3.67c-.26-.53-1-.5-2.17.09q-3.78,1.89-6.7,3.49l-6.3,3.29A4.59,4.59,0,0,0,441.82,149Z"/><path d="M420.23,175.46a1.9,1.9,0,0,1,1.1-1.15,5.06,5.06,0,0,1,1.4-.28,7,7,0,0,0,1.32-.31q5.31-2.07,20.15-8.58,12.63-5.64,20.09-8.56a1.12,1.12,0,0,1,1,.08,1.72,1.72,0,0,1,.73.89,1.89,1.89,0,0,1,0,1.44,1.72,1.72,0,0,1-1,1q-3.57,1.4-10.59,4.56-7.8,3.41-10.61,4.5l-.69.34-.71.28-.42.17-.3.11q-5.12,2.22-15.42,6.25l-1.55.61,1.8,4.59a2.59,2.59,0,0,1-1.3,2,1.87,1.87,0,0,1-1.34,0,1.48,1.48,0,0,1-.91-.85,3.56,3.56,0,0,1-.14-.7l0-.26a7.8,7.8,0,0,1-.51-1.11l-.39-1a7.38,7.38,0,0,0-.32-1,2.32,2.32,0,0,1-1.35-3Z"/><path d="M426.53,186.25c1-.29,1.66.17,2,1.4l.22.73a2.62,2.62,0,0,0,.1.58.86.86,0,0,0,.52.61,2.15,2.15,0,0,0,1.17-.12q5.21-1.57,14-4.9,9.21-3.37,14-4.81c1.14-.34,2.19-.64,3.15-.88l3.14-.88a25.26,25.26,0,0,0,3.32-1.2,4.07,4.07,0,0,1-.67-1.33,1.33,1.33,0,0,1,1-1.86,1.64,1.64,0,0,1,1.56.51,6.65,6.65,0,0,1,1.48,2.05,26.83,26.83,0,0,1,1.74,4.23,1.84,1.84,0,0,1-.11,1.4,1.64,1.64,0,0,1-1,.87,1.81,1.81,0,0,1-1.28-.05,1.26,1.26,0,0,1-.79-.86,2.61,2.61,0,0,1-.13-.63l-.15-.49a1.27,1.27,0,0,0-.54-.81,1.46,1.46,0,0,0-1.09,0q-6.5,2-17.66,6.19-11.73,4.33-17.73,6.14l-2.33.7a8.65,8.65,0,0,1,.43,1.21c.52,1.71.06,2.79-1.37,3.22l-.37.11-1.5-1.22s-.06-.16-.14-.36-.22-.6-.4-1.22c-.5-1.36-.8-2.21-.9-2.53C425.22,188.56,425.31,186.62,426.53,186.25Z"/><path d="M430.2,208.48a8.45,8.45,0,0,1,1.69-3,14.48,14.48,0,0,1,3-2.36,23.73,23.73,0,0,1,4-2,64.57,64.57,0,0,1,9.53-2.95c.95-.24,2.6-.59,4.94-1.06l4-.79c1.13-.18,2.31-.39,3.52-.64a31.08,31.08,0,0,1,5.93-.72,9.85,9.85,0,0,1,1.91-.58,7.66,7.66,0,0,1,6.65,1.6,11.18,11.18,0,0,1,3.75,6.69,5.53,5.53,0,0,1-.28,3.19,2.6,2.6,0,0,1-1.92,1.82,1.18,1.18,0,0,1-1.1-.3,2.05,2.05,0,0,1-.63-1.18,5.63,5.63,0,0,1-.08-1.39,1.38,1.38,0,0,1,.38-1l-.16-.81.13,0a7.2,7.2,0,0,0-1.79-3.69,5.39,5.39,0,0,0-3.05-1.22,8.36,8.36,0,0,0-1.83,0,16.89,16.89,0,0,0-2,.26c-.34,0-1,.14-2,.34l-2.17.56-2.12.49a11.31,11.31,0,0,1-2.25.19A13.76,13.76,0,0,0,456,200l-1.51.3q-2.44.49-6.67,1.53a38.45,38.45,0,0,0-7,2.25,14.41,14.41,0,0,0-5.22,3.26,4.7,4.7,0,0,0-1.57,4.56,5,5,0,0,0,1.65,2.41,5.67,5.67,0,0,1,1.61,2.16,2.74,2.74,0,0,1-.58,2,4.23,4.23,0,0,1-3.93-1,9,9,0,0,1-2.22-3.6,18.72,18.72,0,0,1-.52-2A6.73,6.73,0,0,1,430.2,208.48Z"/><path d="M433.56,239.31a9.75,9.75,0,0,1,3.06-2.52,29.64,29.64,0,0,1,9.39-3q4.14-.75,9.57-1.23l3.39-.16,3.46-.09c1.1-.08,2.45-.14,4-.18a63.56,63.56,0,0,1,6.79.13,25,25,0,0,1,6.11,1.11,6.92,6.92,0,0,1,3.79,2.84,5.62,5.62,0,0,1,.58,2.28,6.33,6.33,0,0,1-2.54,5.45,16.52,16.52,0,0,1-6.63,3.07,44.48,44.48,0,0,1-8.54,1.39c-3,.26-5.88.42-8.57.5l-3.65.1c-.72,0-2.09,0-4.1-.2a38,38,0,0,0-4-.15h-.25a20.33,20.33,0,0,0-4.24-.26,10,10,0,0,1-3.73-.67,9.09,9.09,0,0,1-3.32-2.08,4.28,4.28,0,0,1-1.63-3.16A4.79,4.79,0,0,1,433.56,239.31Zm4.88,5.3a23.29,23.29,0,0,0,5.19,1q3,.25,6.89.41c1.11.06,2.54.06,4.29,0l5.88-.23c2.3-.15,5.18-.49,8.62-1a29.46,29.46,0,0,0,7.75-2.14,6.86,6.86,0,0,0,2.45-1.67,3,3,0,0,0,.84-2.07c0-1.07-.89-1.83-2.56-2.3a24.06,24.06,0,0,0-5.8-1.12c-2.27-.19-4.42-.28-6.47-.26H463.4c-.59,0-1.4,0-2.43,0h-.25a76,76,0,0,0-10.53,1.2q-8.49,1.26-12,3.34c-1.47.9-2.19,1.82-2.17,2.75S436.85,244.06,438.44,244.61Z"/><path d="M438.1,257.48q7.41.51,23.74,1t17.26,0a3.14,3.14,0,0,1,2.64,1.6,5,5,0,0,1,.45,1.47,7.37,7.37,0,0,1,.1,1.71,12.71,12.71,0,0,1-.05,1.6,3.71,3.71,0,0,1-.62,2.08,2,2,0,0,1-1.74.51,1.18,1.18,0,0,1-1-.58,2.18,2.18,0,0,1-.26-1.3l.11-.64.06-.89c.08-1.19-.11-1.8-.58-1.84-2.21-.15-5.11-.21-8.71-.16q-4.5.08-8.53-.08c.07.3.17.87.3,1.72a9.28,9.28,0,0,1,.15,1.9,1.52,1.52,0,0,1-.69,1.17,2.07,2.07,0,0,1-1.41.41,1.31,1.31,0,0,1-1.22-.92l-.24-.62a3.71,3.71,0,0,1-.2-1.27c0-.38,0-1-.06-1.93l.05-.7c-2.55-.18-6-.21-10.45-.09q-6.93.09-10.44-.16l-.26-.08-.12-.07a3.7,3.7,0,0,1-.83,0,1.59,1.59,0,0,1-1.27-.66,2.32,2.32,0,0,1-.37-1.57C434,257.81,435.38,257.29,438.1,257.48Z"/><path d="M429.74,287.8a8.34,8.34,0,0,1,2.75-2,14.42,14.42,0,0,1,3.72-.93,24.63,24.63,0,0,1,4.47-.17,65.17,65.17,0,0,1,9.9,1.18q1.46.27,4.95,1.06l3.93.88c1.11.3,2.27.58,3.48.86a30.71,30.71,0,0,1,5.71,1.74,10.52,10.52,0,0,1,2,.25,7.69,7.69,0,0,1,5.42,4.18,11.14,11.14,0,0,1,.7,7.64,5.61,5.61,0,0,1-1.55,2.8,2.61,2.61,0,0,1-2.49.88,1.23,1.23,0,0,1-.89-.73,2,2,0,0,1-.09-1.33,5,5,0,0,1,.49-1.3A1.37,1.37,0,0,1,473,302l.19-.81.12,0a7.22,7.22,0,0,0-.12-4.1,5.44,5.44,0,0,0-2.29-2.35,8,8,0,0,0-1.67-.77,17.54,17.54,0,0,0-1.9-.56c-.33-.12-1-.29-2-.52l-2.21-.37-2.14-.41a11.46,11.46,0,0,1-2.13-.75,13.29,13.29,0,0,0-2.11-.8l-1.5-.34c-1.62-.36-3.86-.81-6.72-1.32a37.68,37.68,0,0,0-7.3-.79,14.46,14.46,0,0,0-6.1.85,4.7,4.7,0,0,0-3.29,3.52,5,5,0,0,0,.53,2.88,5.51,5.51,0,0,1,.59,2.62,2.72,2.72,0,0,1-1.34,1.6,4.24,4.24,0,0,1-3.17-2.55,9.12,9.12,0,0,1-.56-4.2c.11-.85.21-1.52.33-2A6.53,6.53,0,0,1,429.74,287.8Z"/><path d="M424,307a9.6,9.6,0,0,1,3.76-1.28,29.62,29.62,0,0,1,9.85.49q4.14.75,9.38,2.23l3.23,1,3.27,1.13c1.06.32,2.34.74,3.83,1.25a65.63,65.63,0,0,1,6.31,2.52,25.56,25.56,0,0,1,5.33,3.2,6.93,6.93,0,0,1,2.55,4,5.64,5.64,0,0,1-.27,2.34,6.35,6.35,0,0,1-4.3,4.21,16.6,16.6,0,0,1-7.29.53,44.81,44.81,0,0,1-8.48-1.71q-4.38-1.25-8.19-2.56l-3.45-1.19c-.68-.24-1.94-.78-3.77-1.64-1.43-.67-2.68-1.19-3.72-1.56l-.25-.08a20.38,20.38,0,0,0-3.86-1.74,10,10,0,0,1-3.26-1.94,9.15,9.15,0,0,1-2.38-3.12,4.26,4.26,0,0,1-.4-3.53A4.8,4.8,0,0,1,424,307Zm2.7,6.68a22.32,22.32,0,0,0,4.5,2.74q2.76,1.33,6.31,2.82c1,.45,2.36,1,4,1.52l5.59,1.86c2.2.68,5,1.37,8.41,2.1a29,29,0,0,0,8,.73,6.71,6.71,0,0,0,2.88-.7,3,3,0,0,0,1.52-1.64c.35-1-.18-2-1.59-3.05a23.23,23.23,0,0,0-5-3.09c-2-1-4-1.83-6-2.53l-2-.75c-.56-.24-1.32-.53-2.28-.86l-.25-.08a75.48,75.48,0,0,0-10.27-2.6q-8.39-1.81-12.41-1.11c-1.7.32-2.69.93-3,1.81S425.43,312.57,426.73,313.65Z"/><path d="M416.16,326.83A9.6,9.6,0,0,1,420,326a29.4,29.4,0,0,1,9.73,1.6q4,1.21,9.08,3.28l3.08,1.4,3.12,1.49c1,.44,2.24,1,3.67,1.69a62.43,62.43,0,0,1,6,3.21,25.45,25.45,0,0,1,4.93,3.78,7,7,0,0,1,2.08,4.26,5.63,5.63,0,0,1-.53,2.3,6.34,6.34,0,0,1-4.75,3.69,16.54,16.54,0,0,1-7.3-.31,44.72,44.72,0,0,1-8.24-2.66c-2.8-1.15-5.42-2.31-7.84-3.47l-3.29-1.57c-.66-.31-1.84-1-3.56-2.05a38,38,0,0,0-3.53-2l-.23-.11a20.33,20.33,0,0,0-3.64-2.16,10.07,10.07,0,0,1-3-2.3,9.14,9.14,0,0,1-2-3.37,4.23,4.23,0,0,1,0-3.55A4.8,4.8,0,0,1,416.16,326.83Zm1.93,6.95a22.63,22.63,0,0,0,4.16,3.23q2.6,1.64,5.94,3.52c1,.55,2.24,1.21,3.82,2l5.34,2.49q3.16,1.36,8.12,3a29.29,29.29,0,0,0,7.87,1.64,6.93,6.93,0,0,0,3-.37,3,3,0,0,0,1.69-1.46q.69-1.44-1.23-3.21A23.45,23.45,0,0,0,452.1,341c-1.93-1.21-3.8-2.27-5.63-3.19l-1.88-1c-.52-.3-1.24-.67-2.17-1.11l-.23-.11a76.51,76.51,0,0,0-9.91-3.75c-5.41-1.83-9.49-2.67-12.21-2.51-1.72.13-2.78.62-3.18,1.46S416.92,332.56,418.09,333.78Z"/><path d="M400.7,352.94a3.59,3.59,0,0,0,.43-.56q9.21,3.74,15.72,5.77a78.42,78.42,0,0,0,12.83,2.9l-1.4-2.46A5,5,0,0,0,427,357c-1-.79-1.78-1.34-2.28-1.66-1.09-.68-2.78-1.67-5.09-3s-4-2.28-5.15-3L410,346.62q-2.88-1.8-1.72-3.65,1-1.56,4,.34,2.39,1.49,7.12,4.91c2.87,2.16,5.22,3.8,7,4.93l4.62,3,5.64,3.54a65.58,65.58,0,0,0,6.48,3.53,58.2,58.2,0,0,1,5.33,2.81,2,2,0,0,1,.92,1.18,1.62,1.62,0,0,1-.19,1.39c-.83,1.34-2.72,1.09-5.65-.74l-11-7.19,2,2.7q3.43,4.63,6.69,9.33A38.9,38.9,0,0,1,444,377c.59,1.23.77,2,.55,2.38a1.86,1.86,0,0,1-1.07.81,1.53,1.53,0,0,1-1.29-.17q-.56-.35-4.89-7.14a62.22,62.22,0,0,0-5.76-8.29l-1-.62q-2.57-.48-15.92-3.93t-14-3.87a1.57,1.57,0,0,1-.76-1.2,2.1,2.1,0,0,1,.33-1.49A2.34,2.34,0,0,1,400.7,352.94Z"/><path d="M400,359.71c.81.62.83,1.44,0,2.46l-.47.6a2.34,2.34,0,0,0-.41.42.85.85,0,0,0-.19.78,2.11,2.11,0,0,0,.77.88q4.31,3.33,12.15,8.57,8.1,5.52,12.05,8.58c.94.73,1.79,1.41,2.54,2l2.55,2a26.22,26.22,0,0,0,2.9,2,4,4,0,0,1,.7-1.32,1.32,1.32,0,0,1,2.11-.23,1.62,1.62,0,0,1,.5,1.56,6.54,6.54,0,0,1-.81,2.4,28.26,28.26,0,0,1-2.42,3.87,1.84,1.84,0,0,1-1.21.73,1.62,1.62,0,0,1-1.29-.31,1.9,1.9,0,0,1-.71-1.08,1.29,1.29,0,0,1,.24-1.14,2.56,2.56,0,0,1,.44-.47l.31-.41a1.25,1.25,0,0,0,.34-.91,1.44,1.44,0,0,0-.66-.87q-5.37-4.16-15.3-10.76-10.35-7-15.31-10.86l-1.92-1.48a10.43,10.43,0,0,1-.74,1.05q-1.63,2.13-3.41.76l-.31-.24.12-1.93a2.82,2.82,0,0,0,.21-.32c.11-.18.37-.53.76-1,.82-1.21,1.33-1.94,1.54-2.21C397.34,360,399,358.92,400,359.71Z"/><path d="M386.75,372.87a1.59,1.59,0,0,1,2.05.41l27.4,25.14a20.24,20.24,0,0,0,2.66,1.92,15.51,15.51,0,0,1,2.71,1.88l.14.13a14,14,0,0,1,.61,2.74,15.56,15.56,0,0,0-1.41,1.91,12.6,12.6,0,0,1-1.41,1.92,3.63,3.63,0,0,1-1.79,1.05,1.73,1.73,0,0,1-1.71-.26q-1.41-1.31.58-3.47l.6-.66a6,6,0,0,0,.65-.62,2,2,0,0,0,.43-.56c-1.07-1-2.41-2.1-4-3.36l-1.4-1.12-2.68-2.28c-.6-.55-1.47-1.43-2.61-2.65L405,392.47l-.47.79a7.58,7.58,0,0,1-1.14,1.81,1.83,1.83,0,0,1-1.27.58,1.67,1.67,0,0,1-1.31-.42,2.27,2.27,0,0,1-.69-1.29,1.46,1.46,0,0,1,.36-1.28l.56-.52.57-.61a1.71,1.71,0,0,0,.57-1.3L387.6,376.86l-2.29,2.77q-2.46,2.69-3.69,1.56l-.19-.17a2.89,2.89,0,0,1,0-1.88,6.77,6.77,0,0,1,.9-1.87l1.38-1.6,1.34-1.46A6,6,0,0,1,386.75,372.87Z"/><path d="M376.17,383.29a1.63,1.63,0,0,1,1.66.31,2,2,0,0,1,.55,1.18,1.34,1.34,0,0,1-.49,1.09,5.35,5.35,0,0,1-1.72.87,7.11,7.11,0,0,0-1.57.73,3,3,0,0,0-.93,2.27,7.37,7.37,0,0,0,.71,3.11,17.13,17.13,0,0,0,3,5,21.1,21.1,0,0,0,4.52,3.71,31.92,31.92,0,0,0,5.71,2.82l2.13.83q3.33,1.31,5.22,2.1a28.46,28.46,0,0,1,3.82,2,19.82,19.82,0,0,1,4.71,3.77,11.83,11.83,0,0,1,2.32,3.76,8.68,8.68,0,0,1,.55,4.17,5.55,5.55,0,0,1-1.92,3.81,4.2,4.2,0,0,1-2.11,1,3.71,3.71,0,0,1-2.28-.23L400,423.9a4,4,0,0,1,2.28-1.2,3.09,3.09,0,0,0,.74-2.19,7,7,0,0,0-.55-2.56,7.81,7.81,0,0,0-1.35-2.06,19.48,19.48,0,0,0-3.82-3.23,26.58,26.58,0,0,0-4.51-2.35l-9.33-3.64a24.69,24.69,0,0,1-4.76-2.68,26.62,26.62,0,0,1-4.34-3.84,16.22,16.22,0,0,1-3.81-7.26,8.68,8.68,0,0,1,.05-4.15,6.9,6.9,0,0,1,2.09-3.4A8.89,8.89,0,0,1,376.17,383.29Z"/><path d="M308.18,427.33l.07.18a44.41,44.41,0,0,0,3.74,6.66q2.37,3.56,6.18,8.41c1.92,2.42,3.6,4.62,5,6.59l-8.9-23.6a2.55,2.55,0,0,1-.21-1.53c.11-.38.48-.69,1.12-.93a1.57,1.57,0,0,1,1.31,0,1.75,1.75,0,0,1,.86,1l.18.48,6.53,17.64q2.82,7.83,6.5,17.59l2.78,7.37a1.4,1.4,0,0,1,.08,1.1,2.17,2.17,0,0,1-1.16.74,7.06,7.06,0,0,1-3,.47,6.7,6.7,0,0,1-2.75-.77,10.85,10.85,0,0,1-4.3-4.13A15.38,15.38,0,0,1,321,462a16.05,16.05,0,0,1-.59-2c-.17-.76-.28-1.24-.31-1.46a15.57,15.57,0,0,1-.14-2c0-.9,0-1.49-.05-1.76l.08-1.94,0-1.79a34.74,34.74,0,0,0-2.81-5.16q-1.94-3-3.83-5.53c-.9-1.17-2.45-3.09-4.65-5.78L305,429.91l-.05-.12a8,8,0,0,1-.47-1.8,1.19,1.19,0,0,1,.89-1.44C306.11,426.27,307.05,426.53,308.18,427.33Zm15,27.59,1,5.49a5,5,0,0,0,.26.86,15.93,15.93,0,0,0,2.17,3.76,6.91,6.91,0,0,0,1.62,1.48,1.91,1.91,0,0,0,1.47.36l-2.14-6q-1.34-4.08-2.17-6.3c-.53-1.39-.89-2.3-1.1-2.73A30.61,30.61,0,0,0,323.18,454.92Z"/><path d="M298.69,429.2c.76,0,1.26.49,1.53,1.43l10,35.83a20.61,20.61,0,0,0,1.24,3,15.06,15.06,0,0,1,1.31,3l0,.18a15.11,15.11,0,0,1-.92,2.65,14.09,14.09,0,0,0-2.22.88,11.89,11.89,0,0,1-2.21.88,3.66,3.66,0,0,1-2.07-.05,1.74,1.74,0,0,1-1.32-1.13c-.34-1.23.44-2.11,2.33-2.64l.86-.24a6,6,0,0,0,.88-.18,2.19,2.19,0,0,0,.66-.25q-.58-2.1-1.65-5l-.6-1.69-1.07-3.36c-.22-.78-.49-2-.81-3.62l-.84-3.49-.81.42a7.6,7.6,0,0,1-1.93.94,1.89,1.89,0,0,1-1.38-.18,1.7,1.7,0,0,1-.89-1.05,2.13,2.13,0,0,1,.09-1.45,1.48,1.48,0,0,1,1-.91l.76-.14.8-.22a1.73,1.73,0,0,0,1.18-.8l-5.3-19-3.4,1.15q-3.52,1-4-.63l-.07-.25a2.84,2.84,0,0,1,1-1.58,6.74,6.74,0,0,1,1.75-1.11l2-.63,1.91-.53A6.36,6.36,0,0,1,298.69,429.2Z"/><path d="M283,433.55a2.6,2.6,0,0,1,.68,1.4l1.81,10.6q1.23,7.71,2,11.93,2.7,14.67,5.77,22.17a2.85,2.85,0,0,1-2.13,1.89,9,9,0,0,1-4.44-.26,9.41,9.41,0,0,1-3.69-2.22,14.49,14.49,0,0,1-4-7.73,17.75,17.75,0,0,1,.46-8.8,14.4,14.4,0,0,1,4.79-6.87L283,449.33l-.74-3.32c-.17-.7-.38-1.73-.63-3.07-.64-2.79-1.13-5.06-1.45-6.83a3.19,3.19,0,0,1,.16-2,1.84,1.84,0,0,1,1.44-1A1.32,1.32,0,0,1,283,433.55Zm-.75,30.65a14.08,14.08,0,0,0-.11,6l0,.06a26.06,26.06,0,0,0,1,3.59,4.9,4.9,0,0,0,1,1.38c.43.45.67.7.73.78a10.89,10.89,0,0,0,2.69,1.53l1.85.89q-.58-3.21-2.2-9.88l-2.21-9.87A16.09,16.09,0,0,0,282.21,464.2Z"/><path d="M262.28,438.68a22.37,22.37,0,0,1,4.14,8.36,74.63,74.63,0,0,1,2.31,11.51q.74,5.59,1.21,12.17l.38,5.3c.07,1.49.16,3.07.28,4.73a1.75,1.75,0,0,1,.61,1.24,2,2,0,0,1-.48,1.41,1.71,1.71,0,0,1-1.23.7q-2.29.16-2.63-4.36-.21-2.94-1.13-11.09t-1.12-11.08a15.76,15.76,0,0,1-.85-3.27,39,39,0,0,1-.59-4.07,16.34,16.34,0,0,0-.7-3.44,26.08,26.08,0,0,0-1.58-4.09,10.82,10.82,0,0,0-2.43-3.51,3.83,3.83,0,0,0-2.92-1.23,2.08,2.08,0,0,0-1.46.68,2.9,2.9,0,0,0-.67,1.72,16.84,16.84,0,0,0-.13,3.53l.91,12.45a51.37,51.37,0,0,0,.88,6c.45,2.66.73,4.67.82,6l0,.45c.05.68.11,1.3.19,1.85l.2,1.84c.09,1.2.29,3,.59,5.42.33,2.15.55,4,.66,5.47a1.49,1.49,0,0,1-.65,1.26,2.75,2.75,0,0,1-1.59.63l-1.7-1.35-.08-1.09a7.92,7.92,0,0,1,.12-1.86c.08-1.21.12-1.9.1-2.07q-.42-5.81-1.8-16-1.35-10.68-1.79-16.62a22.33,22.33,0,0,1,.23-5.66,7,7,0,0,1,.88-2.44,5.78,5.78,0,0,1,1.71-1.66,5.53,5.53,0,0,1,2.76-.85A7.2,7.2,0,0,1,262.28,438.68Z"/><path d="M242.51,438.37l-.44,7.86-.45,7.86q-.18,4.29-.34,13t-.33,13l0,.38a13.67,13.67,0,0,1-.44,3.06,1.94,1.94,0,0,1-2.12,1.64,9.16,9.16,0,0,1-7-3.16,10.88,10.88,0,0,1-2.31-7.72,13.68,13.68,0,0,1,1.78-5.95,12.24,12.24,0,0,1,3.83-4.52,15.09,15.09,0,0,1-5.21-6.65,21.05,21.05,0,0,1-1.4-8.73,14,14,0,0,1,1.76-5.51,11.87,11.87,0,0,1,5.28-5.48,9.31,9.31,0,0,1,4.26-.79h.26C241.6,436.73,242.56,437.3,242.51,438.37Zm-9,4.25a9.29,9.29,0,0,0-2.09,5.74,28.51,28.51,0,0,0,.26,5.42,11.65,11.65,0,0,0,1.1,3.79,13.78,13.78,0,0,0,1.32,2.11,4.39,4.39,0,0,0,1.17,1.13l.5.22,2.31.09q0-7.37.54-21.18A7.28,7.28,0,0,0,233.5,442.62Zm1.42,24.91a27,27,0,0,0-2,4.27,18.48,18.48,0,0,1-.71,1.76l-.1,2.24a6,6,0,0,0,1.26,3.77,4,4,0,0,0,3.13,1.92c.59,0,.92-.62,1-1.95.12-2.81.17-5.33.18-7.55l.16-7.1A4.52,4.52,0,0,0,234.92,467.53Z"/><path d="M222.14,435.84a1.87,1.87,0,0,1,.48,1.51,4.92,4.92,0,0,1-.44,1.36,7.47,7.47,0,0,0-.36,1.31q-.75,5.66-2.21,21.79-1.17,13.79-2.2,21.72a1.11,1.11,0,0,1-.57.86,1.76,1.76,0,0,1-1.12.21,1.94,1.94,0,0,1-1.27-.72,1.76,1.76,0,0,1-.4-1.37q.51-3.81,1.12-11.47.79-8.49,1.18-11.47l0-.77.1-.76,0-.44.05-.32q.53-5.55,2-16.52l.22-1.65-4.89-.65a2.53,2.53,0,0,1-1.08-2.07,1.84,1.84,0,0,1,.63-1.18,1.45,1.45,0,0,1,1.19-.39,3.24,3.24,0,0,1,.68.22l.24.09a10.5,10.5,0,0,1,1.22.1l1.07.14a7.84,7.84,0,0,0,1,.2,2.32,2.32,0,0,1,3.29.27Z"/><path d="M209.65,436.14c-.22,1-1,1.37-2.2,1.1l-.75-.16a2.09,2.09,0,0,0-.55-.18.84.84,0,0,0-.79.16,2.1,2.1,0,0,0-.46,1.07q-1.14,5.33-2.49,14.66-1.49,9.69-2.54,14.57c-.25,1.17-.5,2.23-.74,3.18l-.75,3.18a25.87,25.87,0,0,0-.55,3.48,4.16,4.16,0,0,1,1.49.06,1.33,1.33,0,0,1,1.12,1.81,1.63,1.63,0,0,1-1.19,1.12,6.64,6.64,0,0,1-2.52.31,27.83,27.83,0,0,1-4.54-.52,1.79,1.79,0,0,1-1.17-.77,1.58,1.58,0,0,1-.28-1.3,1.92,1.92,0,0,1,.66-1.11,1.35,1.35,0,0,1,1.14-.28,2.72,2.72,0,0,1,.61.2l.5.11a1.26,1.26,0,0,0,1-.09,1.45,1.45,0,0,0,.5-1q1.42-6.63,3.11-18.45,1.88-12.36,3.18-18.49l.51-2.38a9,9,0,0,1-1.26-.21c-1.75-.37-2.47-1.29-2.16-2.75l.08-.38,1.79-.72.39.05c.21,0,.63.1,1.25.23,1.44.22,2.32.37,2.66.44Q210.06,434.27,209.65,436.14Z"/><path d="M188.41,428.63a8.36,8.36,0,0,1,1.79,2.91,14.62,14.62,0,0,1,.62,3.79,24.08,24.08,0,0,1-.21,4.47,65.26,65.26,0,0,1-2,9.76q-.39,1.43-1.47,4.84l-1.21,3.85c-.39,1.08-.77,2.21-1.15,3.39a30.38,30.38,0,0,1-2.22,5.54,10.43,10.43,0,0,1-.41,1.95,7.65,7.65,0,0,1-4.62,5.05,11.07,11.07,0,0,1-7.67.06,5.57,5.57,0,0,1-2.66-1.78,2.63,2.63,0,0,1-.67-2.56,1.22,1.22,0,0,1,.8-.82,2.06,2.06,0,0,1,1.34,0,5.67,5.67,0,0,1,1.25.6c.43.27.67.54.71.83l.79.25,0,.12a7.17,7.17,0,0,0,4.09.22A5.4,5.4,0,0,0,178,469a8.43,8.43,0,0,0,.9-1.6,16.57,16.57,0,0,0,.72-1.85,19.16,19.16,0,0,0,.68-1.93l.56-2.18.59-2.09a11.36,11.36,0,0,1,.92-2.06,12.85,12.85,0,0,0,1-2l.47-1.46c.5-1.59,1.12-3.79,1.88-6.59a38.32,38.32,0,0,0,1.4-7.21,14.46,14.46,0,0,0-.33-6.15,4.73,4.73,0,0,0-3.24-3.57,5,5,0,0,0-2.91.29A5.71,5.71,0,0,1,178,431a2.73,2.73,0,0,1-1.48-1.47,4.19,4.19,0,0,1,2.81-2.94,9,9,0,0,1,4.22-.21,20.21,20.21,0,0,1,2,.5A6.65,6.65,0,0,1,188.41,428.63Z"/><path d="M159.79,416.68a9.59,9.59,0,0,1,.73,3.9,29.56,29.56,0,0,1-1.89,9.68q-1.33,4-3.54,9l-1.5,3L152,445.35c-.47,1-1.07,2.21-1.79,3.62a64.64,64.64,0,0,1-3.39,5.88,25,25,0,0,1-3.93,4.82,6.94,6.94,0,0,1-4.31,1.95,5.59,5.59,0,0,1-2.29-.6,6.33,6.33,0,0,1-3.55-4.85,16.69,16.69,0,0,1,.52-7.29,44.09,44.09,0,0,1,2.91-8.15c1.23-2.77,2.47-5.35,3.7-7.74l1.67-3.25c.33-.64,1-1.81,2.16-3.49a40,40,0,0,0,2.07-3.47l.12-.23a20,20,0,0,0,2.27-3.58,10,10,0,0,1,2.39-2.94,9.06,9.06,0,0,1,3.43-1.91,4.26,4.26,0,0,1,3.54.1A4.81,4.81,0,0,1,159.79,416.68Zm-7,1.72a23,23,0,0,0-3.36,4.07c-1.13,1.69-2.36,3.64-3.69,5.83-.58.95-1.27,2.2-2.07,3.76L141,437.32q-1.47,3.14-3.28,8a29.12,29.12,0,0,0-1.87,7.81,6.93,6.93,0,0,0,.28,3,3,3,0,0,0,1.41,1.73c1,.49,2,.11,3.25-1.13a24.17,24.17,0,0,0,3.78-4.54q1.89-2.83,3.36-5.54l1-1.85q.47-.76,1.17-2.13l.12-.23a77.6,77.6,0,0,0,4-9.8q3-8,2.86-12.13c-.07-1.71-.53-2.79-1.36-3.22S154,417.27,152.79,418.4Z"/><path d="M141.69,411.89q-4,6.24-12.33,20.31t-8.3,15.13a3.15,3.15,0,0,1-2.68,1.55,5.12,5.12,0,0,1-1.5-.33,7.21,7.21,0,0,1-1.55-.73A11.43,11.43,0,0,1,114,447a3.58,3.58,0,0,1-1.52-1.54,2,2,0,0,1,.39-1.78,1.22,1.22,0,0,1,1-.61,2.25,2.25,0,0,1,1.26.4l.51.41.75.48c1,.65,1.63.78,1.89.38q1.8-2.79,4.35-7.55c1.4-2.65,2.8-5.12,4.19-7.43q-.45-.13-1.65-.57a9.43,9.43,0,0,1-1.74-.78,1.49,1.49,0,0,1-.69-1.17,2.08,2.08,0,0,1,.31-1.43,1.33,1.33,0,0,1,1.4-.63l.66.09a3.59,3.59,0,0,1,1.21.44c.34.17.92.46,1.72.88l.59.38q2.08-3.23,5.12-9.11,3.27-6.12,5.18-9.07l.19-.18.13-.07a4.08,4.08,0,0,1,.4-.74,1.63,1.63,0,0,1,1.19-.79,2.35,2.35,0,0,1,1.55.43Q143.91,408.46,141.69,411.89Z"/><path d="M119.17,389.93a8.23,8.23,0,0,1,.46,3.39,15.09,15.09,0,0,1-1,3.71,24.54,24.54,0,0,1-2,4,66.12,66.12,0,0,1-5.82,8.1q-.93,1.14-3.31,3.82l-2.67,3q-1.2,1.26-2.43,2.64a31.15,31.15,0,0,1-4.29,4.16A10.46,10.46,0,0,1,97,424.37a7.68,7.68,0,0,1-6.28,2.73,11.14,11.14,0,0,1-7-3.07,5.67,5.67,0,0,1-1.71-2.71,2.62,2.62,0,0,1,.44-2.61,1.22,1.22,0,0,1,1.06-.43,2.07,2.07,0,0,1,1.21.56,5.64,5.64,0,0,1,.9,1.06,1.39,1.39,0,0,1,.32,1.05l.62.55-.09.1a7.21,7.21,0,0,0,3.65,1.86,5.35,5.35,0,0,0,3.17-.86,7.86,7.86,0,0,0,1.47-1.09,17.22,17.22,0,0,0,1.42-1.4c.26-.23.72-.72,1.4-1.49l1.4-1.76,1.39-1.67a11.76,11.76,0,0,1,1.68-1.5,14.07,14.07,0,0,0,1.73-1.47l1-1.15q1.65-1.86,4.4-5.24a38.78,38.78,0,0,0,4.22-6,14.43,14.43,0,0,0,2.19-5.76,4.69,4.69,0,0,0-1.49-4.58,5,5,0,0,0-2.78-.92,5.68,5.68,0,0,1-2.58-.75,2.7,2.7,0,0,1-.75-1.95,4.2,4.2,0,0,1,3.76-1.54,9.08,9.08,0,0,1,4,1.53c.69.51,1.23.93,1.61,1.27A6.6,6.6,0,0,1,119.17,389.93Z"/><path d="M105.14,375.67a9.66,9.66,0,0,1-.7,3.91A29.23,29.23,0,0,1,99.26,388q-2.66,3.27-6.48,7.15l-2.47,2.32-2.57,2.32c-.79.77-1.78,1.69-2.95,2.75a62.92,62.92,0,0,1-5.25,4.3,25.08,25.08,0,0,1-5.37,3.13,6.89,6.89,0,0,1-4.73.3,5.61,5.61,0,0,1-1.92-1.36,6.33,6.33,0,0,1-1.61-5.79A16.74,16.74,0,0,1,69,396.44a45,45,0,0,1,5.59-6.6c2.13-2.16,4.2-4.13,6.19-5.94l2.71-2.44c.54-.49,1.62-1.33,3.25-2.51a39.61,39.61,0,0,0,3.17-2.51l.19-.17a20.54,20.54,0,0,0,3.39-2.55,10.09,10.09,0,0,1,3.27-1.92,9,9,0,0,1,3.88-.57,4.25,4.25,0,0,1,3.28,1.34A4.81,4.81,0,0,1,105.14,375.67ZM98,374.81a22.86,22.86,0,0,0-4.57,2.62c-1.66,1.19-3.5,2.57-5.52,4.16q-1.32,1-3.26,2.78l-4.33,4q-2.47,2.4-5.9,6.36a29.18,29.18,0,0,0-4.51,6.65,7,7,0,0,0-.78,2.87,3,3,0,0,0,.71,2.12c.72.79,1.86.82,3.44.08a23.76,23.76,0,0,0,5.13-2.91c1.86-1.33,3.55-2.66,5.1-4l1.61-1.37c.48-.37,1.09-.9,1.85-1.58l.19-.17a78,78,0,0,0,7.24-7.75q5.63-6.46,7-10.34c.53-1.63.49-2.79-.14-3.49S99.55,374.2,98,374.81Z"/><path d="M91.55,359.2a9.79,9.79,0,0,1-1.14,3.8,29.53,29.53,0,0,1-6.1,7.75q-3,2.94-7.25,6.36l-2.72,2-2.81,2c-.88.68-2,1.48-3.25,2.4a63.29,63.29,0,0,1-5.7,3.68,25,25,0,0,1-5.69,2.5,7,7,0,0,1-4.73-.24,5.58,5.58,0,0,1-1.76-1.57,6.32,6.32,0,0,1-.94-5.94,16.59,16.59,0,0,1,3.79-6.25,45,45,0,0,1,6.3-5.93q3.56-2.85,6.83-5.19l3-2.13c.59-.42,1.76-1.13,3.52-2.12a37.3,37.3,0,0,0,3.42-2.14l.21-.15a20.18,20.18,0,0,0,3.66-2.14,9.92,9.92,0,0,1,3.47-1.54,9.13,9.13,0,0,1,3.92-.12,4.21,4.21,0,0,1,3.11,1.7A4.86,4.86,0,0,1,91.55,359.2Zm-7-1.67a23.14,23.14,0,0,0-4.84,2.08q-2.68,1.49-6,3.51c-.95.58-2.14,1.37-3.56,2.39L65.42,369q-2.73,2.11-6.58,5.65a29.38,29.38,0,0,0-5.23,6.1,6.79,6.79,0,0,0-1.1,2.76,3,3,0,0,0,.46,2.18c.62.87,1.76,1,3.41.48a23.8,23.8,0,0,0,5.43-2.31q3-1.67,5.52-3.4l1.75-1.17c.52-.32,1.19-.77,2-1.37l.21-.15a77.39,77.39,0,0,0,8.07-6.87c4.21-3.85,6.91-7,8.08-9.48.72-1.56.81-2.73.26-3.49S86.16,357.09,84.53,357.53Z"/><path d="M76.14,333.05a4.06,4.06,0,0,0,.29.65q-7.73,6.27-12.64,11a78.06,78.06,0,0,0-8.74,9.83l2.83,0a5,5,0,0,0,2-.37q1.77-.77,2.55-1.2,1.68-.93,5.06-3t5.11-3.06l4.58-2.55q3-1.65,4,.25.9,1.62-2.23,3.36c-1.64.92-4.22,2.2-7.74,3.87-3.28,1.48-5.85,2.73-7.72,3.77l-4.84,2.62-5.82,3.23a64.13,64.13,0,0,0-6.21,4,58.62,58.62,0,0,1-5,3.32,2,2,0,0,1-1.48.23A1.63,1.63,0,0,1,39,368c-.77-1.37.36-2.91,3.38-4.58L54,357.31l-3.33.46c-3.81.51-7.62,1-11.4,1.35a39,39,0,0,1-5.09.2c-1.36-.08-2.14-.3-2.35-.67a1.86,1.86,0,0,1-.19-1.33,1.53,1.53,0,0,1,.78-1.05c.37-.21,3.24-.48,8.61-.83a62.61,62.61,0,0,0,10-1l1-.56q1.65-2,11.13-12t10.15-10.4a1.61,1.61,0,0,1,1.42-.09,2.2,2.2,0,0,1,1.14,1A2.27,2.27,0,0,1,76.14,333.05Z"/><path d="M70.56,329.15c-.94.41-1.66,0-2.17-1.15l-.31-.7a2.15,2.15,0,0,0-.17-.55.81.81,0,0,0-.58-.55,2.15,2.15,0,0,0-1.15.25q-5,2.18-13.37,6.5-8.75,4.43-13.33,6.41c-1.09.48-2.1.89-3,1.25l-3,1.24a27,27,0,0,0-3.15,1.57,4.37,4.37,0,0,1,.82,1.25,1.33,1.33,0,0,1-.82,2,1.63,1.63,0,0,1-1.61-.31A6.84,6.84,0,0,1,27,344.45a28.44,28.44,0,0,1-2.22-4,1.82,1.82,0,0,1-.06-1.41,1.59,1.59,0,0,1,.9-1,1.9,1.9,0,0,1,1.28-.11,1.3,1.3,0,0,1,.89.77,2.39,2.39,0,0,1,.2.61l.2.47a1.27,1.27,0,0,0,.64.74,1.51,1.51,0,0,0,1.08-.16q6.23-2.7,16.81-8.2,11.14-5.67,16.9-8.17l2.23-1a9.39,9.39,0,0,1-.57-1.15q-1.06-2.46,1-3.36l.35-.15,1.63,1,.19.34c.1.18.28.57.53,1.16.66,1.29,1.06,2.1,1.19,2.41C71.59,326.71,71.74,328.64,70.56,329.15Z"/><path d="M65.43,311.21c0,.76-.42,1.29-1.35,1.6L28.83,324.66a20.86,20.86,0,0,0-3,1.41,15.24,15.24,0,0,1-2.95,1.46l-.18.06a13.53,13.53,0,0,1-2.69-.78,15.55,15.55,0,0,0-1-2.16,13.3,13.3,0,0,1-1-2.16,3.66,3.66,0,0,1-.05-2.08A1.74,1.74,0,0,1,19,319q1.83-.62,2.76,2.18l.29.85a5,5,0,0,0,.22.87,2.43,2.43,0,0,0,.29.65q2.05-.69,4.89-1.92l1.66-.69,3.29-1.24c.77-.26,2-.6,3.58-1l3.44-1-.47-.78a7.69,7.69,0,0,1-1-1.88,1.83,1.83,0,0,1,.1-1.39,1.7,1.7,0,0,1,1-.94,2.15,2.15,0,0,1,1.46,0,1.45,1.45,0,0,1,.95.93l.19.75.26.79a1.73,1.73,0,0,0,.86,1.13L61.52,310l-1.32-3.34q-1.17-3.46.41-4l.24-.08a2.85,2.85,0,0,1,1.64.94,6.53,6.53,0,0,1,1.2,1.68l.74,2,.63,1.89A6.25,6.25,0,0,1,65.43,311.21Z"/><path d="M61.41,296.91c-.22.75-.58,1.19-1.08,1.31a2,2,0,0,1-1.3-.09,1.29,1.29,0,0,1-.71-.95,5.15,5.15,0,0,1,.07-1.92,7.41,7.41,0,0,0,.11-1.74A3,3,0,0,0,57,291.61a7.34,7.34,0,0,0-3.07-.88,17.21,17.21,0,0,0-5.87.2,20.94,20.94,0,0,0-5.44,2.17,33.51,33.51,0,0,0-5.23,3.63l-1.75,1.47q-2.76,2.3-4.36,3.56a27.85,27.85,0,0,1-3.58,2.39,19.87,19.87,0,0,1-5.57,2.3,11.82,11.82,0,0,1-4.42.22,8.59,8.59,0,0,1-3.91-1.54,5.46,5.46,0,0,1-2.41-3.51,4.16,4.16,0,0,1,.14-2.33,3.77,3.77,0,0,1,1.3-1.89l1.55.75a4,4,0,0,1,0,2.58,3.12,3.12,0,0,0,1.56,1.71,6.91,6.91,0,0,0,2.51.75,8,8,0,0,0,2.46-.19,19.42,19.42,0,0,0,4.67-1.79,26.21,26.21,0,0,0,4.24-2.81L37.43,292a25,25,0,0,1,4.64-2.87,27,27,0,0,1,5.46-1.94,16.17,16.17,0,0,1,8.2.16,8.68,8.68,0,0,1,3.6,2.05,7,7,0,0,1,2,3.48A8.87,8.87,0,0,1,61.41,296.91Z"/><polygon points="365.4 67.64 351.18 66.65 342.31 77.8 338.85 63.97 325.5 58.98 337.59 51.42 338.21 37.18 349.13 46.34 362.87 42.53 357.54 55.75 365.4 67.64"/><polygon points="366.48 448.98 354.44 441.35 341.33 446.94 344.87 433.13 335.5 422.39 349.72 421.49 357.04 409.25 362.3 422.5 376.19 425.69 365.22 434.78 366.48 448.98"/><polygon points="49.84 265.29 35.63 264.31 26.75 275.46 23.3 261.63 9.95 256.63 22.03 249.08 22.65 234.84 33.58 243.99 47.31 240.19 41.98 253.41 49.84 265.29"/></g></g></svg>